<svg xmlns="http://www.w3.org/2000/svg" xmlns:v="https://svgstorm.com"
viewBox = "0 0 1024 1024"
width="1024"
height="1024">
<g fill="None" fill-opacity="0.0" stroke="#000000" stroke-opacity="0.00" stroke-width="0.3"><path d="
M 0.00 1024.00 
L 1024.00 1024.00
L 1024.00 0.00
L 0.00 0.00
L 0.00 1024.00
M 94.00 498.00 
C 92.86 494.29 93.76 488.51 95.00 485.00
C 96.19 474.92 90.00 457.23 105.02 457.02 C 114.83 456.13 126.99 455.10 129.31 443.31 C 138.22 435.12 131.39 427.02 126.23 418.77 C 117.77 409.41 128.40 401.86 135.25 396.25 C 141.64 389.56 148.67 384.97 155.25 378.25 C 164.53 372.65 170.77 385.78 179.23 388.77 C 187.36 393.87 198.04 384.01 205.90 381.90 C 211.34 373.96 207.20 357.90 219.02 356.02 C 231.68 355.97 244.34 356.02 257.00 356.00 C 266.92 359.86 262.44 374.91 268.26 382.74 C 277.22 384.08 287.32 394.82 296.08 388.08 C 303.57 385.10 310.77 371.26 318.75 379.25 C 325.42 385.52 333.24 391.26 339.30 397.70 C 347.77 402.93 354.70 410.92 347.07 420.07 C 340.34 427.64 337.51 436.02 344.92 444.08 C 348.00 456.19 360.47 455.39 370.22 457.78 C 384.95 458.23 376.66 476.69 380.00 486.00 C 381.91 498.30 379.89 509.14 366.77 511.77 C 354.34 514.12 356.07 526.74 353.02 536.02 C 354.63 545.18 365.67 550.30 367.99 559.01 C 365.89 568.08 357.71 574.98 353.25 583.25 C 348.51 590.19 343.00 603.36 332.32 595.68 C 323.83 590.05 314.49 588.81 307.75 597.75 C 294.60 602.50 300.83 616.31 300.00 627.00 C 298.07 637.62 282.06 634.34 274.32 639.32 C 265.24 640.87 251.83 649.47 248.70 635.30 C 246.60 627.31 235.43 612.68 230.69 626.69 C 225.37 632.90 223.07 649.34 211.92 642.08 C 201.59 639.44 191.53 636.06 180.99 634.01 C 168.41 630.17 179.09 612.13 173.74 603.26 C 165.93 599.26 158.82 586.83 149.31 593.31 C 141.11 597.09 129.37 602.85 125.70 590.30 C 120.03 583.10 115.97 574.95 110.25 567.75 C 101.35 558.89 112.87 550.25 118.25 543.25 C 122.83 535.41 119.40 521.66 113.77 515.23 C 107.44 509.85 91.04 508.54 94.00 498.00
M 551.00 524.00 
C 549.16 522.47 549.88 518.91 551.00 517.00
C 549.34 502.40 549.33 484.52 551.00 470.00
C 551.00 469.50 551.00 469.00 551.00 469.00
C 543.77 456.21 563.54 459.88 571.00 461.00
C 571.75 468.61 569.47 475.44 570.00 483.00
C 576.14 486.63 593.96 478.87 591.07 490.07 C 596.21 503.51 582.27 501.31 573.00 501.00 C 565.85 506.84 572.36 519.45 571.00 528.00 C 569.53 539.50 582.60 538.53 589.74 540.26 C 594.90 549.39 589.09 561.00 577.78 555.22 C 559.80 558.97 546.25 540.99 551.00 524.00
M 716.00 493.00 
C 715.97 493.50 715.95 494.51 716.00 495.00
C 720.04 505.13 702.87 499.63 697.00 501.00
C 695.57 511.36 696.98 521.53 697.00 532.00 C 699.66 543.75 720.31 532.84 717.00 547.00 C 720.74 561.28 699.35 556.19 693.00 553.00
C 692.51 552.92 692.00 553.00 692.00 553.00
C 664.41 541.37 679.93 501.52 677.00 478.00 C 676.36 469.54 674.54 455.77 688.00 460.00 C 701.90 457.07 693.20 475.12 696.78 482.22 C 701.85 487.08 722.86 478.79 716.00 493.00
M 904.00 486.00 
C 918.88 480.95 941.35 480.21 947.92 498.08 C 953.02 516.29 947.29 537.23 952.00 555.00
C 944.99 554.62 928.46 560.99 930.00 549.00 C 927.33 532.87 938.09 500.00 914.00 500.00 C 903.31 501.70 903.32 513.14 904.00 522.00 C 904.00 533.00 904.00 544.00 904.00 555.00
C 895.57 555.36 879.73 559.55 883.00 545.00 C 882.96 523.16 883.46 502.99 883.00 482.00 C 883.75 472.86 879.05 456.27 894.00 460.00 C 910.13 456.38 902.15 476.69 904.00 486.00
M 442.00 552.00 
C 426.37 559.66 396.69 559.20 396.00 536.00 C 394.46 511.07 423.94 508.85 442.00 511.00
C 443.29 499.50 426.29 496.15 420.08 503.08 C 417.40 511.34 393.78 511.01 399.98 498.98 C 411.36 472.69 465.74 478.41 463.33 511.67 C 464.67 522.81 464.24 534.94 463.00 546.00 C 467.72 559.27 446.42 558.04 442.00 552.00
M 643.00 483.00 
C 671.20 487.83 675.97 526.81 660.75 546.75 C 643.22 563.46 605.76 559.86 599.07 533.93 C 587.67 505.62 612.02 474.94 643.00 483.00
M 746.00 528.00 
C 746.24 540.05 764.58 544.16 772.25 536.25 C 778.11 531.45 798.92 526.02 796.07 538.07 C 781.39 569.52 719.69 560.02 725.00 521.00 C 716.93 481.12 780.28 467.79 794.31 501.70 C 797.34 510.41 804.14 532.63 787.00 529.00 C 773.79 526.86 759.61 528.52 746.00 528.00
M 854.00 511.00 
C 852.08 490.42 820.20 500.00 825.00 519.00 C 820.29 537.17 850.21 549.44 854.00 529.00
C 864.08 527.33 879.60 528.51 870.74 541.74 C 857.28 565.00 815.33 560.77 806.68 535.32 C 792.68 507.42 820.87 472.94 852.02 483.98 C 860.25 485.21 867.09 491.45 871.75 498.25 C 879.92 512.04 864.09 512.31 854.00 511.00
M 491.00 492.00 
C 491.00 494.67 491.00 497.33 491.00 500.00
C 493.31 508.76 491.35 519.49 492.00 529.00
C 493.16 537.18 505.62 544.16 511.30 536.30 C 518.62 531.28 516.36 519.73 516.20 512.75 C 516.71 504.55 517.43 495.67 516.22 486.78 C 519.98 481.40 542.53 481.48 536.00 493.00
C 536.00 504.67 536.00 516.33 536.00 528.00
C 537.79 535.75 537.38 546.11 536.22 554.22 C 530.60 555.17 518.71 558.96 515.00 552.00
C 501.21 560.83 479.32 557.78 473.23 540.77 C 470.98 522.47 470.52 504.38 472.00 486.00
C 476.94 482.43 496.75 481.13 491.00 492.00 Z"/>
</g>
<g fill="None" fill-opacity="0.0" stroke="#EDF7FB" stroke-opacity="0.20" stroke-width="0.3"><path d="
M 95.00 485.00 
C 95.26 484.75 96.00 485.00 96.00 485.00
C 98.84 477.19 93.79 466.64 100.25 460.25 C 108.62 459.02 116.42 456.26 125.00 456.00
C 127.77 447.92 134.98 440.36 136.21 432.77 C 132.56 424.66 126.77 417.49 124.00 409.00
C 130.21 403.51 136.53 398.43 142.25 392.25 C 149.39 389.28 154.43 376.38 162.74 380.26 C 170.18 383.77 176.27 391.08 183.70 393.64 C 191.33 389.02 201.58 388.28 208.30 383.30 C 212.12 375.78 209.05 359.34 220.00 359.00 C 231.67 359.00 243.33 359.00 255.00 359.00 C 265.38 360.21 261.39 375.83 265.93 383.07 C 271.63 389.14 283.21 387.87 290.23 393.77 C 297.60 390.22 304.33 384.16 311.25 379.25 C 319.32 377.14 323.95 388.91 330.75 392.25 C 336.95 397.47 343.64 403.13 348.92 409.08 C 347.61 417.64 341.24 424.79 337.70 432.70 C 339.15 440.37 346.92 447.62 349.00 456.00
C 361.03 457.79 382.55 456.45 377.00 475.00 C 377.12 487.20 384.64 505.46 368.30 509.30 C 352.57 511.92 354.94 527.42 350.00 539.00
C 355.75 546.09 368.06 554.83 364.23 564.23 C 357.78 572.62 352.60 581.77 346.25 590.25 C 339.56 603.00 325.90 588.36 316.00 588.00
C 311.24 594.14 304.40 598.41 298.00 602.00
C 295.20 613.32 306.11 633.71 288.33 633.33 C 277.16 635.51 265.21 642.31 254.26 640.74 C 247.04 632.96 246.43 615.23 232.00 619.00
C 229.49 626.17 225.06 632.64 221.23 639.23 C 215.89 645.13 204.91 637.42 197.78 636.22 C 190.89 633.01 176.89 635.53 176.00 626.00
C 176.63 622.17 174.72 617.01 177.00 614.00
C 181.00 600.30 165.89 597.31 158.75 589.25 C 148.54 587.93 135.44 604.03 128.25 591.75 C 122.77 582.72 116.66 574.06 110.75 565.25 C 104.58 555.93 118.54 547.08 124.00 540.00
C 121.69 531.67 121.33 522.35 117.25 514.75 C 110.44 510.30 101.62 508.92 96.00 503.00
C 93.69 502.40 93.97 499.87 94.00 498.00
C 91.04 508.54 107.44 509.85 113.77 515.23 C 119.40 521.66 122.83 535.41 118.25 543.25 C 112.87 550.25 101.35 558.89 110.25 567.75 C 115.97 574.95 120.03 583.10 125.70 590.30 C 129.37 602.85 141.11 597.09 149.31 593.31 C 158.82 586.83 165.93 599.26 173.74 603.26 C 179.09 612.13 168.41 630.17 180.99 634.01 C 191.53 636.06 201.59 639.44 211.92 642.08 C 223.07 649.34 225.37 632.90 230.69 626.69 C 235.43 612.68 246.60 627.31 248.70 635.30 C 251.83 649.47 265.24 640.87 274.32 639.32 C 282.06 634.34 298.07 637.62 300.00 627.00 C 300.83 616.31 294.60 602.50 307.75 597.75 C 314.49 588.81 323.83 590.05 332.32 595.68 C 343.00 603.36 348.51 590.19 353.25 583.25 C 357.71 574.98 365.89 568.08 367.99 559.01 C 365.67 550.30 354.63 545.18 353.02 536.02 C 356.07 526.74 354.34 514.12 366.77 511.77 C 379.89 509.14 381.91 498.30 380.00 486.00 C 376.66 476.69 384.95 458.23 370.22 457.78 C 360.47 455.39 348.00 456.19 344.92 444.08 C 337.51 436.02 340.34 427.64 347.07 420.07 C 354.70 410.92 347.77 402.93 339.30 397.70 C 333.24 391.26 325.42 385.52 318.75 379.25 C 310.77 371.26 303.57 385.10 296.08 388.08 C 287.32 394.82 277.22 384.08 268.26 382.74 C 262.44 374.91 266.92 359.86 257.00 356.00 C 244.34 356.02 231.68 355.97 219.02 356.02 C 207.20 357.90 211.34 373.96 205.90 381.90 C 198.04 384.01 187.36 393.87 179.23 388.77 C 170.77 385.78 164.53 372.65 155.25 378.25 C 148.67 384.97 141.64 389.56 135.25 396.25 C 128.40 401.86 117.77 409.41 126.23 418.77 C 131.39 427.02 138.22 435.12 129.31 443.31 C 126.99 455.10 114.83 456.13 105.02 457.02 C 90.00 457.23 96.19 474.92 95.00 485.00 Z"/>
</g>
<g fill="None" fill-opacity="0.0" stroke="#0486D0" stroke-opacity="0.99" stroke-width="0.3"><path d="
M 96.00 485.00 
C 96.84 491.10 94.70 497.60 96.00 503.00
C 101.62 508.92 110.44 510.30 117.25 514.75 C 121.33 522.35 121.69 531.67 124.00 540.00
C 118.54 547.08 104.58 555.93 110.75 565.25 C 116.66 574.06 122.77 582.72 128.25 591.75 C 135.44 604.03 148.54 587.93 158.75 589.25 C 165.89 597.31 181.00 600.30 177.00 614.00
C 176.37 617.83 178.28 622.99 176.00 626.00
C 176.89 635.53 190.89 633.01 197.78 636.22 C 204.91 637.42 215.89 645.13 221.23 639.23 C 225.06 632.64 229.49 626.17 232.00 619.00
C 246.43 615.23 247.04 632.96 254.26 640.74 C 265.21 642.31 277.16 635.51 288.33 633.33 C 306.11 633.71 295.20 613.32 298.00 602.00
C 304.40 598.41 311.24 594.14 316.00 588.00
C 325.90 588.36 339.56 603.00 346.25 590.25 C 352.60 581.77 357.78 572.62 364.23 564.23 C 368.06 554.83 355.75 546.09 350.00 539.00
C 354.94 527.42 352.57 511.92 368.30 509.30 C 384.64 505.46 377.12 487.20 377.00 475.00 C 382.55 456.45 361.03 457.79 349.00 456.00
C 346.92 447.62 339.15 440.37 337.70 432.70 C 341.24 424.79 347.61 417.64 348.92 409.08 C 343.64 403.13 336.95 397.47 330.75 392.25 C 323.95 388.91 319.32 377.14 311.25 379.25 C 304.33 384.16 297.60 390.22 290.23 393.77 C 283.21 387.87 271.63 389.14 265.93 383.07 C 261.39 375.83 265.38 360.21 255.00 359.00 C 243.33 359.00 231.67 359.00 220.00 359.00 C 209.05 359.34 212.12 375.78 208.30 383.30 C 201.58 388.28 191.33 389.02 183.70 393.64 C 176.27 391.08 170.18 383.77 162.74 380.26 C 154.43 376.38 149.39 389.28 142.25 392.25 C 136.53 398.43 130.21 403.51 124.00 409.00
C 126.77 417.49 132.56 424.66 136.21 432.77 C 134.98 440.36 127.77 447.92 125.00 456.00
C 116.42 456.26 108.62 459.02 100.25 460.25 C 93.79 466.64 98.84 477.19 96.00 485.00
M 292.00 541.00 
C 290.99 540.45 290.56 539.02 290.00 538.00
C 286.42 533.40 284.70 527.21 279.75 523.25 C 271.54 522.69 263.24 523.15 255.00 523.00
C 256.05 518.02 259.94 514.00 261.00 509.00
C 272.47 506.38 290.47 515.05 297.00 503.00
C 310.42 509.96 322.97 488.48 307.92 482.08 C 287.58 474.97 296.03 506.59 277.00 500.00 C 260.67 500.00 244.33 500.00 228.00 500.00
C 224.07 501.60 216.86 501.70 213.00 500.00
C 217.11 491.73 221.26 483.59 225.31 475.31 C 228.52 469.43 234.35 451.15 240.25 464.75 C 245.21 472.33 247.69 482.25 255.08 487.92 C 263.59 488.09 284.78 491.12 277.22 476.78 C 267.54 461.55 265.98 438.79 250.00 429.00
C 240.33 429.00 230.67 429.00 221.00 429.00
C 205.81 443.86 200.06 467.69 189.07 486.07 C 178.28 505.28 168.87 525.44 159.00 545.00
C 150.85 534.45 147.69 520.47 147.00 507.00
C 145.41 503.40 145.29 496.53 147.00 493.00
C 148.36 420.62 247.87 381.47 298.25 433.75 C 354.07 479.94 324.96 578.36 254.78 589.78 C 233.70 592.86 211.68 590.32 193.77 579.23 C 187.31 574.98 173.89 569.49 182.77 560.77 C 186.92 552.68 190.88 544.46 195.75 536.75 C 201.00 526.66 218.00 534.46 228.00 532.00 C 240.33 532.00 252.67 532.00 265.00 532.00 C 276.88 528.33 282.69 539.87 284.99 549.01 C 281.63 565.96 301.39 550.75 292.00 541.00
M 305.00 496.00 
C 301.34 499.35 295.93 490.31 302.00 489.00
C 305.66 485.65 311.07 494.69 305.00 496.00 Z"/>
</g>
<g fill="None" fill-opacity="0.0" stroke="#F0F9FB" stroke-opacity="0.16" stroke-width="0.3"><path d="
M 147.00 493.00 
C 147.00 497.67 147.00 502.33 147.00 507.00
C 147.69 520.47 150.85 534.45 159.00 545.00
C 168.87 525.44 178.28 505.28 189.07 486.07 C 200.06 467.69 205.81 443.86 221.00 429.00
C 229.59 427.35 241.48 427.32 250.00 429.00
C 265.98 438.79 267.54 461.55 277.22 476.78 C 284.78 491.12 263.59 488.09 255.08 487.92 C 247.69 482.25 245.21 472.33 240.25 464.75 C 234.35 451.15 228.52 469.43 225.31 475.31 C 221.26 483.59 217.11 491.73 213.00 500.00
C 218.00 500.00 223.00 500.00 228.00 500.00
C 244.33 500.00 260.67 500.00 277.00 500.00 C 296.03 506.59 287.58 474.97 307.92 482.08 C 322.97 488.48 310.42 509.96 297.00 503.00
C 290.47 515.05 272.47 506.38 261.00 509.00
C 259.94 514.00 256.05 518.02 255.00 523.00
C 263.24 523.15 271.54 522.69 279.75 523.25 C 284.70 527.21 286.42 533.40 290.00 538.00
C 291.60 537.47 290.72 535.25 291.00 534.00
C 288.67 522.59 305.16 515.80 311.75 525.25 C 319.36 534.86 305.97 546.94 296.00 541.00
C 294.63 539.90 292.69 538.24 292.00 541.00
C 301.39 550.75 281.63 565.96 284.99 549.01 C 282.69 539.87 276.88 528.33 265.00 532.00 C 252.67 532.00 240.33 532.00 228.00 532.00 C 218.00 534.46 201.00 526.66 195.75 536.75 C 190.88 544.46 186.92 552.68 182.77 560.77 C 173.89 569.49 187.31 574.98 193.77 579.23 C 211.68 590.32 233.70 592.86 254.78 589.78 C 324.96 578.36 354.07 479.94 298.25 433.75 C 247.87 381.47 148.36 420.62 147.00 493.00
M 316.00 539.00 
C 324.16 521.52 290.87 508.83 290.00 530.00
C 284.15 522.44 277.40 517.48 267.00 520.00 C 252.01 522.91 263.83 506.15 274.00 512.00 C 284.21 512.88 293.74 512.74 300.03 505.03 C 325.24 510.03 317.89 468.83 296.31 481.31 C 287.34 484.04 291.50 499.42 280.00 498.00 C 258.68 497.39 236.53 498.89 216.00 498.00
C 221.11 489.00 224.60 478.98 230.25 470.25 C 235.29 453.43 243.15 475.02 247.30 481.70 C 252.08 493.50 270.28 489.50 279.74 486.74 C 282.89 475.81 272.60 466.34 270.08 455.92 C 264.46 446.87 262.92 435.89 254.75 428.25 C 242.62 426.32 228.96 425.75 216.93 427.93 C 200.81 455.09 188.47 484.40 173.23 512.23 C 167.40 520.74 165.43 532.92 157.00 539.00
C 138.75 502.98 149.05 455.57 181.75 430.75 C 212.92 404.91 263.89 405.10 294.23 432.77 C 325.07 457.81 336.29 506.26 316.00 539.00
M 290.00 560.00 
C 294.60 555.76 297.09 550.46 296.00 544.00
C 303.10 544.63 310.72 544.37 315.00 539.00
C 298.52 586.07 232.16 602.83 191.92 576.08 C 177.31 570.98 185.94 556.79 191.31 547.31 C 194.86 531.51 209.96 531.73 224.00 533.00 C 239.33 533.00 254.67 533.00 270.00 533.00 C 286.24 533.65 277.34 557.75 290.00 560.00 Z"/>
</g>
<g fill="None" fill-opacity="0.0" stroke="#000000" stroke-opacity="0.00" stroke-width="0.3"><path d="
M 316.00 539.00 
C 336.29 506.26 325.07 457.81 294.23 432.77 C 263.89 405.10 212.92 404.91 181.75 430.75 C 149.05 455.57 138.75 502.98 157.00 539.00
C 165.43 532.92 167.40 520.74 173.23 512.23 C 188.47 484.40 200.81 455.09 216.93 427.93 C 228.96 425.75 242.62 426.32 254.75 428.25 C 262.92 435.89 264.46 446.87 270.08 455.92 C 272.60 466.34 282.89 475.81 279.74 486.74 C 270.28 489.50 252.08 493.50 247.30 481.70 C 243.15 475.02 235.29 453.43 230.25 470.25 C 224.60 478.98 221.11 489.00 216.00 498.00
C 236.53 498.89 258.68 497.39 280.00 498.00 C 291.50 499.42 287.34 484.04 296.31 481.31 C 317.89 468.83 325.24 510.03 300.03 505.03 C 293.74 512.74 284.21 512.88 274.00 512.00 C 263.83 506.15 252.01 522.91 267.00 520.00 C 277.40 517.48 284.15 522.44 290.00 530.00
C 290.87 508.83 324.16 521.52 316.00 539.00 Z"/>
</g>
<g fill="None" fill-opacity="0.0" stroke="#CCE9F3" stroke-opacity="0.64" stroke-width="0.3"><path d="
M 221.00 429.00 
C 230.67 429.00 240.33 429.00 250.00 429.00
C 241.48 427.32 229.59 427.35 221.00 429.00 Z"/>
</g>
<g fill="None" fill-opacity="0.0" stroke="#F2FAFC" stroke-opacity="0.15" stroke-width="0.3"><path d="
M 551.00 469.00 
C 551.10 467.07 550.20 460.26 553.00 462.00
C 557.91 463.17 566.49 459.56 569.00 464.00
C 569.00 471.33 569.00 478.67 569.00 486.00
C 576.00 486.00 583.00 486.00 590.00 486.00
C 590.00 490.67 590.00 495.33 590.00 500.00
C 583.00 500.00 576.00 500.00 569.00 500.00
C 569.42 516.27 562.64 546.65 589.00 541.00
C 589.00 545.33 589.00 549.67 589.00 554.00
C 567.82 559.24 546.21 545.38 552.00 522.00
C 550.90 522.03 551.19 523.34 551.00 524.00
C 546.25 540.99 559.80 558.97 577.78 555.22 C 589.09 561.00 594.90 549.39 589.74 540.26 C 582.60 538.53 569.53 539.50 571.00 528.00 C 572.36 519.45 565.85 506.84 573.00 501.00 C 582.27 501.31 596.21 503.51 591.07 490.07 C 593.96 478.87 576.14 486.63 570.00 483.00
C 569.47 475.44 571.75 468.61 571.00 461.00
C 563.54 459.88 543.77 456.21 551.00 469.00 Z"/>
</g>
<g fill="None" fill-opacity="0.0" stroke="#F0F9FC" stroke-opacity="0.21" stroke-width="0.3"><path d="
M 692.00 553.00 
C 677.64 546.22 677.54 529.07 678.00 515.00 C 678.00 497.33 678.00 479.67 678.00 462.00
C 683.67 462.00 689.33 462.00 695.00 462.00
C 695.00 470.00 695.00 478.00 695.00 486.00
C 702.00 486.00 709.00 486.00 716.00 486.00
C 716.00 488.33 716.00 490.67 716.00 493.00
C 722.86 478.79 701.85 487.08 696.78 482.22 C 693.20 475.12 701.90 457.07 688.00 460.00 C 674.54 455.77 676.36 469.54 677.00 478.00 C 679.93 501.52 664.41 541.37 692.00 553.00 Z"/>
</g>
<g fill="None" fill-opacity="0.0" stroke="#F4FBFD" stroke-opacity="0.14" stroke-width="0.3"><path d="
M 904.00 486.00 
C 902.15 476.69 910.13 456.38 894.00 460.00 C 879.05 456.27 883.75 472.86 883.00 482.00 C 883.46 502.99 882.96 523.16 883.00 545.00 C 879.73 559.55 895.57 555.36 904.00 555.00
C 904.00 544.00 904.00 533.00 904.00 522.00 C 903.32 513.14 903.31 501.70 914.00 500.00 C 938.09 500.00 927.33 532.87 930.00 549.00 C 928.46 560.99 944.99 554.62 952.00 555.00
C 947.29 537.23 953.02 516.29 947.92 498.08 C 941.35 480.21 918.88 480.95 904.00 486.00
M 902.00 462.00 
C 902.00 472.00 902.00 482.00 902.00 492.00
C 914.04 480.86 934.62 481.35 944.75 495.25 C 952.41 513.14 947.69 534.42 949.00 554.00
C 943.33 554.00 937.67 554.00 932.00 554.00
C 928.78 535.73 941.66 503.00 916.99 498.01 C 891.51 501.88 905.63 535.85 902.00 554.00
C 896.33 554.00 890.67 554.00 885.00 554.00
C 885.00 523.33 885.00 492.67 885.00 462.00
C 890.67 462.00 896.33 462.00 902.00 462.00 Z"/>
</g>
<g fill="None" fill-opacity="0.0" stroke="#C8E8F2" stroke-opacity="0.40" stroke-width="0.3"><path d="
M 551.00 469.00 
C 551.00 469.00 551.00 469.50 551.00 470.00
C 551.00 476.33 551.00 482.67 551.00 489.00
C 551.00 488.96 552.00 489.00 552.00 489.00
C 552.66 480.17 550.67 470.01 553.00 462.00
C 550.20 460.26 551.10 467.07 551.00 469.00 Z"/>
</g>
<g fill="None" fill-opacity="0.0" stroke="#0785D0" stroke-opacity="0.98" stroke-width="0.3"><path d="
M 552.00 489.00 
C 552.00 494.00 552.00 499.00 552.00 504.00
C 552.00 510.00 552.00 516.00 552.00 522.00
C 546.21 545.38 567.82 559.24 589.00 554.00
C 589.00 549.67 589.00 545.33 589.00 541.00
C 562.64 546.65 569.42 516.27 569.00 500.00
C 576.00 500.00 583.00 500.00 590.00 500.00
C 590.00 495.33 590.00 490.67 590.00 486.00
C 583.00 486.00 576.00 486.00 569.00 486.00
C 567.36 479.74 567.31 470.19 569.00 464.00
C 566.49 459.56 557.91 463.17 553.00 462.00
C 550.67 470.01 552.66 480.17 552.00 489.00 Z"/>
</g>
<g fill="None" fill-opacity="0.0" stroke="#0785D0" stroke-opacity="0.98" stroke-width="0.3"><path d="
M 692.00 553.00 
C 692.00 553.00 692.51 552.92 693.00 553.00
C 700.29 554.76 708.33 553.74 716.00 554.00
C 716.00 549.67 716.00 545.33 716.00 541.00
C 689.61 546.88 694.92 516.85 695.00 500.00
C 701.42 498.06 715.84 504.67 716.00 495.00
C 715.95 494.51 715.97 493.50 716.00 493.00
C 716.00 490.67 716.00 488.33 716.00 486.00
C 709.00 486.00 702.00 486.00 695.00 486.00
C 695.00 478.00 695.00 470.00 695.00 462.00
C 689.33 462.00 683.67 462.00 678.00 462.00
C 678.00 479.67 678.00 497.33 678.00 515.00 C 677.54 529.07 677.64 546.22 692.00 553.00 Z"/>
</g>
<g fill="None" fill-opacity="0.0" stroke="#0686D0" stroke-opacity="0.98" stroke-width="0.3"><path d="
M 902.00 462.00 
C 896.33 462.00 890.67 462.00 885.00 462.00
C 885.00 492.67 885.00 523.33 885.00 554.00
C 890.67 554.00 896.33 554.00 902.00 554.00
C 905.63 535.85 891.51 501.88 916.99 498.01 C 941.66 503.00 928.78 535.73 932.00 554.00
C 937.67 554.00 943.33 554.00 949.00 554.00
C 947.69 534.42 952.41 513.14 944.75 495.25 C 934.62 481.35 914.04 480.86 902.00 492.00
C 902.00 482.00 902.00 472.00 902.00 462.00 Z"/>
</g>
<g fill="None" fill-opacity="0.0" stroke="#5EACD6" stroke-opacity="0.93" stroke-width="0.3"><path d="
M 569.00 486.00 
C 569.00 478.67 569.00 471.33 569.00 464.00
C 567.31 470.19 567.36 479.74 569.00 486.00 Z"/>
</g>
<g fill="None" fill-opacity="0.0" stroke="#FFFFFF" stroke-opacity="0.01" stroke-width="0.3"><path d="
M 551.00 517.00 
C 551.00 512.67 551.00 508.33 551.00 504.00
C 551.00 499.00 551.00 494.00 551.00 489.00
C 551.00 482.67 551.00 476.33 551.00 470.00
C 549.33 484.52 549.34 502.40 551.00 517.00 Z"/>
</g>
<g fill="None" fill-opacity="0.0" stroke="#F0F9FC" stroke-opacity="0.16" stroke-width="0.3"><path d="
M 442.00 552.00 
C 446.42 558.04 467.72 559.27 463.00 546.00 C 464.24 534.94 464.67 522.81 463.33 511.67 C 465.74 478.41 411.36 472.69 399.98 498.98 C 393.78 511.01 417.40 511.34 420.08 503.08 C 426.29 496.15 443.29 499.50 442.00 511.00
C 423.94 508.85 394.46 511.07 396.00 536.00 C 396.69 559.20 426.37 559.66 442.00 552.00
M 461.00 554.00 
C 455.11 552.55 441.74 558.24 444.00 548.00
C 430.66 558.91 399.75 559.04 398.00 537.00 C 395.27 511.82 426.00 511.05 444.00 512.00
C 446.00 501.22 434.52 495.74 425.33 498.33 C 417.49 503.37 410.94 508.61 400.00 506.00
C 402.27 482.86 433.48 481.00 450.23 488.77 C 469.51 503.45 457.73 532.64 461.00 554.00 Z"/>
</g>
<g fill="None" fill-opacity="0.0" stroke="#E8F5FA" stroke-opacity="0.18" stroke-width="0.3"><path d="
M 643.00 483.00 
C 612.02 474.94 587.67 505.62 599.07 533.93 C 605.76 559.86 643.22 563.46 660.75 546.75 C 675.97 526.81 671.20 487.83 643.00 483.00
M 638.00 484.00 
C 665.59 485.38 675.02 521.09 662.23 542.23 C 647.60 561.72 609.89 559.92 601.08 535.92 C 591.02 510.97 608.31 478.27 638.00 484.00 Z"/>
</g>
<g fill="None" fill-opacity="0.0" stroke="#F0F9FC" stroke-opacity="0.16" stroke-width="0.3"><path d="
M 746.00 528.00 
C 759.61 528.52 773.79 526.86 787.00 529.00 C 804.14 532.63 797.34 510.41 794.31 501.70 C 780.28 467.79 716.93 481.12 725.00 521.00 C 719.69 560.02 781.39 569.52 796.07 538.07 C 798.92 526.02 778.11 531.45 772.25 536.25 C 764.58 544.16 746.24 540.05 746.00 528.00
M 796.00 526.00 
C 778.67 526.00 761.33 526.00 744.00 526.00
C 741.78 542.89 769.17 547.57 776.00 535.00
C 782.00 535.00 788.00 535.00 794.00 535.00
C 788.03 559.10 750.32 561.36 734.75 545.25 C 720.15 528.14 723.84 489.93 749.67 485.67 C 775.12 476.30 801.82 498.92 796.00 526.00 Z"/>
</g>
<g fill="None" fill-opacity="0.0" stroke="#EDF7FB" stroke-opacity="0.16" stroke-width="0.3"><path d="
M 854.00 511.00 
C 864.09 512.31 879.92 512.04 871.75 498.25 C 867.09 491.45 860.25 485.21 852.02 483.98 C 820.87 472.94 792.68 507.42 806.68 535.32 C 815.33 560.77 857.28 565.00 870.74 541.74 C 879.60 528.51 864.08 527.33 854.00 529.00
C 850.21 549.44 820.29 537.17 825.00 519.00 C 820.20 500.00 852.08 490.42 854.00 511.00
M 807.00 524.00 
C 805.43 521.06 805.29 514.87 807.00 512.00
C 807.19 476.84 870.18 473.73 872.00 509.00
C 866.33 509.00 860.67 509.00 855.00 509.00
C 851.91 487.57 817.05 500.03 824.00 520.00 C 818.75 539.80 849.81 551.05 856.00 531.00
C 861.33 531.00 866.67 531.00 872.00 531.00
C 869.01 567.50 803.34 560.93 807.00 524.00 Z"/>
</g>
<g fill="None" fill-opacity="0.0" stroke="#FEFFFF" stroke-opacity="0.01" stroke-width="0.3"><path d="
M 472.00 486.00 
C 472.00 485.99 473.00 486.00 473.00 486.00
C 478.39 485.02 493.68 481.31 491.00 492.00
C 496.75 481.13 476.94 482.43 472.00 486.00 Z"/>
</g>
<g fill="None" fill-opacity="0.0" stroke="#F2FAFC" stroke-opacity="0.21" stroke-width="0.3"><path d="
M 492.00 529.00 
C 491.94 528.84 491.00 529.00 491.00 529.00
C 489.35 543.82 514.59 545.47 516.97 531.97 C 519.35 517.18 517.33 501.24 518.00 486.00
C 523.24 487.19 532.17 483.53 535.00 488.00
C 536.75 488.83 535.66 491.44 536.00 493.00
C 542.53 481.48 519.98 481.40 516.22 486.78 C 517.43 495.67 516.71 504.55 516.20 512.75 C 516.36 519.73 518.62 531.28 511.30 536.30 C 505.62 544.16 493.16 537.18 492.00 529.00 Z"/>
</g>
<g fill="None" fill-opacity="0.0" stroke="#0885D0" stroke-opacity="0.98" stroke-width="0.3"><path d="
M 638.00 484.00 
C 608.31 478.27 591.02 510.97 601.08 535.92 C 609.89 559.92 647.60 561.72 662.23 542.23 C 675.02 521.09 665.59 485.38 638.00 484.00
M 639.00 498.00 
C 659.05 506.34 653.60 547.62 628.93 541.07 C 606.98 535.07 612.93 490.81 639.00 498.00 Z"/>
</g>
<g fill="None" fill-opacity="0.0" stroke="#0886D0" stroke-opacity="0.98" stroke-width="0.3"><path d="
M 796.00 526.00 
C 801.82 498.92 775.12 476.30 749.67 485.67 C 723.84 489.93 720.15 528.14 734.75 545.25 C 750.32 561.36 788.03 559.10 794.00 535.00
C 788.00 535.00 782.00 535.00 776.00 535.00
C 769.17 547.57 741.78 542.89 744.00 526.00
C 761.33 526.00 778.67 526.00 796.00 526.00
M 778.00 513.00 
C 766.67 513.00 755.33 513.00 744.00 513.00
C 742.96 492.28 779.80 492.09 778.00 513.00 Z"/>
</g>
<g fill="None" fill-opacity="0.0" stroke="#0985D0" stroke-opacity="0.98" stroke-width="0.3"><path d="
M 807.00 512.00 
C 807.00 516.00 807.00 520.00 807.00 524.00
C 803.34 560.93 869.01 567.50 872.00 531.00
C 866.67 531.00 861.33 531.00 856.00 531.00
C 849.81 551.05 818.75 539.80 824.00 520.00 C 817.05 500.03 851.91 487.57 855.00 509.00
C 860.67 509.00 866.33 509.00 872.00 509.00
C 870.18 473.73 807.19 476.84 807.00 512.00 Z"/>
</g>
<g fill="None" fill-opacity="0.0" stroke="#E1F2F9" stroke-opacity="0.41" stroke-width="0.3"><path d="
M 94.00 498.00 
C 93.97 499.87 93.69 502.40 96.00 503.00
C 94.70 497.60 96.84 491.10 96.00 485.00
C 96.00 485.00 95.26 484.75 95.00 485.00
C 93.76 488.51 92.86 494.29 94.00 498.00 Z"/>
</g>
<g fill="None" fill-opacity="0.0" stroke="#0986D0" stroke-opacity="0.98" stroke-width="0.3"><path d="
M 461.00 554.00 
C 457.73 532.64 469.51 503.45 450.23 488.77 C 433.48 481.00 402.27 482.86 400.00 506.00
C 410.94 508.61 417.49 503.37 425.33 498.33 C 434.52 495.74 446.00 501.22 444.00 512.00
C 426.00 511.05 395.27 511.82 398.00 537.00 C 399.75 559.04 430.66 558.91 444.00 548.00
C 441.74 558.24 455.11 552.55 461.00 554.00
M 440.00 525.00 
C 441.33 525.00 442.67 525.00 444.00 525.00
C 447.43 537.60 434.17 543.06 424.00 542.00 C 410.52 543.19 413.62 522.41 426.00 525.00
C 429.60 523.41 436.47 523.29 440.00 525.00 Z"/>
</g>
<g fill="None" fill-opacity="0.0" stroke="#B6DEEE" stroke-opacity="0.42" stroke-width="0.3"><path d="
M 473.00 486.00 
C 478.67 486.00 484.33 486.00 490.00 486.00
C 490.00 498.33 490.00 510.67 490.00 523.00
C 492.30 516.24 490.36 507.51 491.00 500.00
C 491.00 497.33 491.00 494.67 491.00 492.00
C 493.68 481.31 478.39 485.02 473.00 486.00 Z"/>
</g>
<g fill="None" fill-opacity="0.0" stroke="#F2FAFC" stroke-opacity="0.14" stroke-width="0.3"><path d="
M 536.00 528.00 
C 536.00 531.67 536.00 535.33 536.00 539.00
C 535.36 543.17 537.29 548.66 535.00 552.00
C 532.15 554.85 515.01 557.40 518.00 548.00
C 506.46 557.05 483.70 559.62 476.70 543.30 C 469.75 525.80 474.33 505.04 473.00 486.00
C 473.00 486.00 472.00 485.99 472.00 486.00
C 470.52 504.38 470.98 522.47 473.23 540.77 C 479.32 557.78 501.21 560.83 515.00 552.00
C 518.71 558.96 530.60 555.17 536.22 554.22 C 537.38 546.11 537.79 535.75 536.00 528.00 Z"/>
</g>
<g fill="None" fill-opacity="0.0" stroke="#0685D0" stroke-opacity="0.99" stroke-width="0.3"><path d="
M 535.00 552.00 
C 535.00 547.67 535.00 543.33 535.00 539.00
C 535.00 522.00 535.00 505.00 535.00 488.00
C 532.17 483.53 523.24 487.19 518.00 486.00
C 517.33 501.24 519.35 517.18 516.97 531.97 C 514.59 545.47 489.35 543.82 491.00 529.00
C 490.72 527.01 489.52 525.22 490.00 523.00
C 490.00 510.67 490.00 498.33 490.00 486.00
C 484.33 486.00 478.67 486.00 473.00 486.00
C 474.33 505.04 469.75 525.80 476.70 543.30 C 483.70 559.62 506.46 557.05 518.00 548.00
C 515.01 557.40 532.15 554.85 535.00 552.00 Z"/>
</g>
<g fill="None" fill-opacity="0.0" stroke="#D8EEF7" stroke-opacity="0.52" stroke-width="0.3"><path d="
M 302.00 489.00 
C 305.05 490.72 304.00 494.04 305.00 496.00
C 311.07 494.69 305.66 485.65 302.00 489.00 Z"/>
</g>
<g fill="None" fill-opacity="0.0" stroke="#C8E7F2" stroke-opacity="0.34" stroke-width="0.3"><path d="
M 535.00 539.00 
C 535.00 538.96 536.00 539.00 536.00 539.00
C 536.00 535.33 536.00 531.67 536.00 528.00
C 536.00 516.33 536.00 504.67 536.00 493.00
C 535.66 491.44 536.75 488.83 535.00 488.00
C 535.00 505.00 535.00 522.00 535.00 539.00 Z"/>
</g>
<g fill="None" fill-opacity="0.0" stroke="#E9F5FA" stroke-opacity="0.22" stroke-width="0.3"><path d="
M 305.00 496.00 
C 304.00 494.04 305.05 490.72 302.00 489.00
C 295.93 490.31 301.34 499.35 305.00 496.00 Z"/>
</g>
<g fill="None" fill-opacity="0.0" stroke="#C4E4F0" stroke-opacity="0.56" stroke-width="0.3"><path d="
M 551.00 504.00 
C 551.00 503.96 552.00 504.00 552.00 504.00
C 552.00 499.00 552.00 494.00 552.00 489.00
C 552.00 489.00 551.00 488.96 551.00 489.00
C 551.00 494.00 551.00 499.00 551.00 504.00 Z"/>
</g>
<g fill="None" fill-opacity="0.0" stroke="#A8D6EB" stroke-opacity="0.44" stroke-width="0.3"><path d="
M 147.00 507.00 
C 147.00 502.33 147.00 497.67 147.00 493.00
C 145.29 496.53 145.41 503.40 147.00 507.00 Z"/>
</g>
<g fill="None" fill-opacity="0.0" stroke="#EBF6FA" stroke-opacity="0.16" stroke-width="0.3"><path d="
M 693.00 553.00 
C 699.35 556.19 720.74 561.28 717.00 547.00 C 720.31 532.84 699.66 543.75 697.00 532.00 C 696.98 521.53 695.57 511.36 697.00 501.00
C 702.87 499.63 720.04 505.13 716.00 495.00
C 715.84 504.67 701.42 498.06 695.00 500.00
C 694.92 516.85 689.61 546.88 716.00 541.00
C 716.00 545.33 716.00 549.67 716.00 554.00
C 708.33 553.74 700.29 554.76 693.00 553.00 Z"/>
</g>
<g fill="None" fill-opacity="0.0" stroke="#EFF8FB" stroke-opacity="0.23" stroke-width="0.3"><path d="
M 778.00 513.00 
C 779.80 492.09 742.96 492.28 744.00 513.00
C 755.33 513.00 766.67 513.00 778.00 513.00
M 772.00 501.00 
C 772.35 504.78 776.12 506.20 777.00 510.00
C 767.17 512.29 756.25 510.37 746.00 511.00
C 747.47 498.38 762.27 497.17 772.00 501.00 Z"/>
</g>
<g fill="None" fill-opacity="0.0" stroke="#E8F5FA" stroke-opacity="0.19" stroke-width="0.3"><path d="
M 639.00 498.00 
C 612.93 490.81 606.98 535.07 628.93 541.07 C 653.60 547.62 659.05 506.34 639.00 498.00
M 636.00 499.00 
C 655.90 503.15 653.65 543.95 630.33 539.67 C 610.04 535.40 613.03 495.66 636.00 499.00 Z"/>
</g>
<g fill="None" fill-opacity="0.0" stroke="#000000" stroke-opacity="0.00" stroke-width="0.3"><path d="
M 636.00 499.00 
C 613.03 495.66 610.04 535.40 630.33 539.67 C 653.65 543.95 655.90 503.15 636.00 499.00 Z"/>
</g>
<g fill="None" fill-opacity="0.0" stroke="#000000" stroke-opacity="0.00" stroke-width="0.3"><path d="
M 772.00 501.00 
C 762.27 497.17 747.47 498.38 746.00 511.00
C 756.25 510.37 767.17 512.29 777.00 510.00
C 776.12 506.20 772.35 504.78 772.00 501.00 Z"/>
</g>
<g fill="None" fill-opacity="0.0" stroke="#7EBFDF" stroke-opacity="0.77" stroke-width="0.3"><path d="
M 228.00 500.00 
C 223.00 500.00 218.00 500.00 213.00 500.00
C 216.86 501.70 224.07 501.60 228.00 500.00 Z"/>
</g>
<g fill="None" fill-opacity="0.0" stroke="#F3F9FC" stroke-opacity="0.09" stroke-width="0.3"><path d="
M 490.00 523.00 
C 489.52 525.22 490.72 527.01 491.00 529.00
C 491.00 529.00 491.94 528.84 492.00 529.00
C 491.35 519.49 493.31 508.76 491.00 500.00
C 490.36 507.51 492.30 516.24 490.00 523.00 Z"/>
</g>
<g fill="None" fill-opacity="0.0" stroke="#E5F5F9" stroke-opacity="0.29" stroke-width="0.3"><path d="
M 551.00 517.00 
C 549.88 518.91 549.16 522.47 551.00 524.00
C 551.19 523.34 550.90 522.03 552.00 522.00
C 552.00 516.00 552.00 510.00 552.00 504.00
C 552.00 504.00 551.00 503.96 551.00 504.00
C 551.00 508.33 551.00 512.67 551.00 517.00 Z"/>
</g>
<g fill="None" fill-opacity="0.0" stroke="#C8E7F2" stroke-opacity="0.64" stroke-width="0.3"><path d="
M 807.00 524.00 
C 807.00 520.00 807.00 516.00 807.00 512.00
C 805.29 514.87 805.43 521.06 807.00 524.00 Z"/>
</g>
<g fill="None" fill-opacity="0.0" stroke="#1185CF" stroke-opacity="0.96" stroke-width="0.3"><path d="
M 291.00 534.00 
C 292.90 535.99 294.38 538.66 296.00 541.00
C 305.97 546.94 319.36 534.86 311.75 525.25 C 305.16 515.80 288.67 522.59 291.00 534.00
M 300.00 531.00 
C 299.73 529.72 300.77 528.28 302.00 528.00
C 312.38 529.87 298.12 539.79 300.00 531.00 Z"/>
</g>
<g fill="None" fill-opacity="0.0" stroke="#55A9D6" stroke-opacity="0.71" stroke-width="0.3"><path d="
M 426.00 525.00 
C 430.67 525.00 435.33 525.00 440.00 525.00
C 436.47 523.29 429.60 523.41 426.00 525.00 Z"/>
</g>
<g fill="None" fill-opacity="0.0" stroke="#F2F9FC" stroke-opacity="0.18" stroke-width="0.3"><path d="
M 440.00 525.00 
C 435.33 525.00 430.67 525.00 426.00 525.00
C 413.62 522.41 410.52 543.19 424.00 542.00 C 434.17 543.06 447.43 537.60 444.00 525.00
C 442.67 525.00 441.33 525.00 440.00 525.00
M 442.00 526.00 
C 445.61 537.70 426.57 544.15 418.25 537.75 C 411.45 524.13 434.12 526.65 442.00 526.00 Z"/>
</g>
<g fill="None" fill-opacity="0.0" stroke="#000000" stroke-opacity="0.00" stroke-width="0.3"><path d="
M 442.00 526.00 
C 434.12 526.65 411.45 524.13 418.25 537.75 C 426.57 544.15 445.61 537.70 442.00 526.00 Z"/>
</g>
<g fill="None" fill-opacity="0.0" stroke="#F7FCFD" stroke-opacity="0.07" stroke-width="0.3"><path d="
M 300.00 531.00 
C 300.01 531.50 300.00 532.00 300.00 532.00
C 301.65 533.91 304.88 530.70 303.00 529.00
C 302.67 528.82 302.24 528.07 302.00 528.00
C 300.77 528.28 299.73 529.72 300.00 531.00 Z"/>
</g>
<g fill="None" fill-opacity="0.0" stroke="#D2EBF4" stroke-opacity="0.63" stroke-width="0.3"><path d="
M 303.00 529.00 
C 308.23 530.72 301.64 537.16 300.00 532.00
C 300.00 532.00 300.01 531.50 300.00 531.00
C 298.12 539.79 312.38 529.87 302.00 528.00
C 302.24 528.07 302.67 528.82 303.00 529.00 Z"/>
</g>
<g fill="None" fill-opacity="0.0" stroke="#F8FFFF" stroke-opacity="0.27" stroke-width="0.3"><path d="
M 300.00 532.00 
C 301.64 537.16 308.23 530.72 303.00 529.00
C 304.88 530.70 301.65 533.91 300.00 532.00 Z"/>
</g>
<g fill="None" fill-opacity="0.0" stroke="#000000" stroke-opacity="0.00" stroke-width="0.3"><path d="
M 290.00 560.00 
C 277.34 557.75 286.24 533.65 270.00 533.00 C 254.67 533.00 239.33 533.00 224.00 533.00 C 209.96 531.73 194.86 531.51 191.31 547.31 C 185.94 556.79 177.31 570.98 191.92 576.08 C 232.16 602.83 298.52 586.07 315.00 539.00
C 310.72 544.37 303.10 544.63 296.00 544.00
C 297.09 550.46 294.60 555.76 290.00 560.00 Z"/>
</g>
<g fill="None" fill-opacity="0.0" stroke="#E2F3F8" stroke-opacity="0.59" stroke-width="0.3"><path d="
M 290.00 538.00 
C 290.56 539.02 290.99 540.45 292.00 541.00
C 292.69 538.24 294.63 539.90 296.00 541.00
C 294.38 538.66 292.90 535.99 291.00 534.00
C 290.72 535.25 291.60 537.47 290.00 538.00 Z"/>
</g>
<g fill="None" fill-opacity="0.0" stroke="#CDEAF4" stroke-opacity="0.49" stroke-width="0.3"><path d="
M 535.00 552.00 
C 537.29 548.66 535.36 543.17 536.00 539.00
C 536.00 539.00 535.00 538.96 535.00 539.00
C 535.00 543.33 535.00 547.67 535.00 552.00 Z"/>
</g>
<g fill="None" fill-opacity="0.0" stroke="#B1DBED" stroke-opacity="0.78" stroke-width="0.3"><path d="
M 176.00 626.00 
C 178.28 622.99 176.37 617.83 177.00 614.00
C 174.72 617.01 176.63 622.17 176.00 626.00 Z"/>
</g>
<g fill="#000000" fill-opacity="0.00" stroke="None">
<path d="
M 0.00 1024.00 
L 1024.00 1024.00
L 1024.00 0.00
L 0.00 0.00
L 0.00 1024.00
M 94.00 498.00 
C 92.86 494.29 93.76 488.51 95.00 485.00
C 96.19 474.92 90.00 457.23 105.02 457.02 C 114.83 456.13 126.99 455.10 129.31 443.31 C 138.22 435.12 131.39 427.02 126.23 418.77 C 117.77 409.41 128.40 401.86 135.25 396.25 C 141.64 389.56 148.67 384.97 155.25 378.25 C 164.53 372.65 170.77 385.78 179.23 388.77 C 187.36 393.87 198.04 384.01 205.90 381.90 C 211.34 373.96 207.20 357.90 219.02 356.02 C 231.68 355.97 244.34 356.02 257.00 356.00 C 266.92 359.86 262.44 374.91 268.26 382.74 C 277.22 384.08 287.32 394.82 296.08 388.08 C 303.57 385.10 310.77 371.26 318.75 379.25 C 325.42 385.52 333.24 391.26 339.30 397.70 C 347.77 402.93 354.70 410.92 347.07 420.07 C 340.34 427.64 337.51 436.02 344.92 444.08 C 348.00 456.19 360.47 455.39 370.22 457.78 C 384.95 458.23 376.66 476.69 380.00 486.00 C 381.91 498.30 379.89 509.14 366.77 511.77 C 354.34 514.12 356.07 526.74 353.02 536.02 C 354.63 545.18 365.67 550.30 367.99 559.01 C 365.89 568.08 357.71 574.98 353.25 583.25 C 348.51 590.19 343.00 603.36 332.32 595.68 C 323.83 590.05 314.49 588.81 307.75 597.75 C 294.60 602.50 300.83 616.31 300.00 627.00 C 298.07 637.62 282.06 634.34 274.32 639.32 C 265.24 640.87 251.83 649.47 248.70 635.30 C 246.60 627.31 235.43 612.68 230.69 626.69 C 225.37 632.90 223.07 649.34 211.92 642.08 C 201.59 639.44 191.53 636.06 180.99 634.01 C 168.41 630.17 179.09 612.13 173.74 603.26 C 165.93 599.26 158.82 586.83 149.31 593.31 C 141.11 597.09 129.37 602.85 125.70 590.30 C 120.03 583.10 115.97 574.95 110.25 567.75 C 101.35 558.89 112.87 550.25 118.25 543.25 C 122.83 535.41 119.40 521.66 113.77 515.23 C 107.44 509.85 91.04 508.54 94.00 498.00
M 551.00 524.00 
C 549.16 522.47 549.88 518.91 551.00 517.00
C 549.34 502.40 549.33 484.52 551.00 470.00
C 551.00 469.50 551.00 469.00 551.00 469.00
C 543.77 456.21 563.54 459.88 571.00 461.00
C 571.75 468.61 569.47 475.44 570.00 483.00
C 576.14 486.63 593.96 478.87 591.07 490.07 C 596.21 503.51 582.27 501.31 573.00 501.00 C 565.85 506.84 572.36 519.45 571.00 528.00 C 569.53 539.50 582.60 538.53 589.74 540.26 C 594.90 549.39 589.09 561.00 577.78 555.22 C 559.80 558.97 546.25 540.99 551.00 524.00
M 716.00 493.00 
C 715.97 493.50 715.95 494.51 716.00 495.00
C 720.04 505.13 702.87 499.63 697.00 501.00
C 695.57 511.36 696.98 521.53 697.00 532.00 C 699.66 543.75 720.31 532.84 717.00 547.00 C 720.74 561.28 699.35 556.19 693.00 553.00
C 692.51 552.92 692.00 553.00 692.00 553.00
C 664.41 541.37 679.93 501.52 677.00 478.00 C 676.36 469.54 674.54 455.77 688.00 460.00 C 701.90 457.07 693.20 475.12 696.78 482.22 C 701.85 487.08 722.86 478.79 716.00 493.00
M 904.00 486.00 
C 918.88 480.95 941.35 480.21 947.92 498.08 C 953.02 516.29 947.29 537.23 952.00 555.00
C 944.99 554.62 928.46 560.99 930.00 549.00 C 927.33 532.87 938.09 500.00 914.00 500.00 C 903.31 501.70 903.32 513.14 904.00 522.00 C 904.00 533.00 904.00 544.00 904.00 555.00
C 895.57 555.36 879.73 559.55 883.00 545.00 C 882.96 523.16 883.46 502.99 883.00 482.00 C 883.75 472.86 879.05 456.27 894.00 460.00 C 910.13 456.38 902.15 476.69 904.00 486.00
M 442.00 552.00 
C 426.37 559.66 396.69 559.20 396.00 536.00 C 394.46 511.07 423.94 508.85 442.00 511.00
C 443.29 499.50 426.29 496.15 420.08 503.08 C 417.40 511.34 393.78 511.01 399.98 498.98 C 411.36 472.69 465.74 478.41 463.33 511.67 C 464.67 522.81 464.24 534.94 463.00 546.00 C 467.72 559.27 446.42 558.04 442.00 552.00
M 643.00 483.00 
C 671.20 487.83 675.97 526.81 660.75 546.75 C 643.22 563.46 605.76 559.86 599.07 533.93 C 587.67 505.62 612.02 474.94 643.00 483.00
M 746.00 528.00 
C 746.24 540.05 764.58 544.16 772.25 536.25 C 778.11 531.45 798.92 526.02 796.07 538.07 C 781.39 569.52 719.69 560.02 725.00 521.00 C 716.93 481.12 780.28 467.79 794.31 501.70 C 797.34 510.41 804.14 532.63 787.00 529.00 C 773.79 526.86 759.61 528.52 746.00 528.00
M 854.00 511.00 
C 852.08 490.42 820.20 500.00 825.00 519.00 C 820.29 537.17 850.21 549.44 854.00 529.00
C 864.08 527.33 879.60 528.51 870.74 541.74 C 857.28 565.00 815.33 560.77 806.68 535.32 C 792.68 507.42 820.87 472.94 852.02 483.98 C 860.25 485.21 867.09 491.45 871.75 498.25 C 879.92 512.04 864.09 512.31 854.00 511.00
M 491.00 492.00 
C 491.00 494.67 491.00 497.33 491.00 500.00
C 493.31 508.76 491.35 519.49 492.00 529.00
C 493.16 537.18 505.62 544.16 511.30 536.30 C 518.62 531.28 516.36 519.73 516.20 512.75 C 516.71 504.55 517.43 495.67 516.22 486.78 C 519.98 481.40 542.53 481.48 536.00 493.00
C 536.00 504.67 536.00 516.33 536.00 528.00
C 537.79 535.75 537.38 546.11 536.22 554.22 C 530.60 555.17 518.71 558.96 515.00 552.00
C 501.21 560.83 479.32 557.78 473.23 540.77 C 470.98 522.47 470.52 504.38 472.00 486.00
C 476.94 482.43 496.75 481.13 491.00 492.00 Z"/>
</g>
<g fill="#EDF7FB" fill-opacity="0.20" stroke="None">
<path d="
M 95.00 485.00 
C 95.26 484.75 96.00 485.00 96.00 485.00
C 98.84 477.19 93.79 466.64 100.25 460.25 C 108.62 459.02 116.42 456.26 125.00 456.00
C 127.77 447.92 134.98 440.36 136.21 432.77 C 132.56 424.66 126.77 417.49 124.00 409.00
C 130.21 403.51 136.53 398.43 142.25 392.25 C 149.39 389.28 154.43 376.38 162.74 380.26 C 170.18 383.77 176.27 391.08 183.70 393.64 C 191.33 389.02 201.58 388.28 208.30 383.30 C 212.12 375.78 209.05 359.34 220.00 359.00 C 231.67 359.00 243.33 359.00 255.00 359.00 C 265.38 360.21 261.39 375.83 265.93 383.07 C 271.63 389.14 283.21 387.87 290.23 393.77 C 297.60 390.22 304.33 384.16 311.25 379.25 C 319.32 377.14 323.95 388.91 330.75 392.25 C 336.95 397.47 343.64 403.13 348.92 409.08 C 347.61 417.64 341.24 424.79 337.70 432.70 C 339.15 440.37 346.92 447.62 349.00 456.00
C 361.03 457.79 382.55 456.45 377.00 475.00 C 377.12 487.20 384.64 505.46 368.30 509.30 C 352.57 511.92 354.94 527.42 350.00 539.00
C 355.75 546.09 368.06 554.83 364.23 564.23 C 357.78 572.62 352.60 581.77 346.25 590.25 C 339.56 603.00 325.90 588.36 316.00 588.00
C 311.24 594.14 304.40 598.41 298.00 602.00
C 295.20 613.32 306.11 633.71 288.33 633.33 C 277.16 635.51 265.21 642.31 254.26 640.74 C 247.04 632.96 246.43 615.23 232.00 619.00
C 229.49 626.17 225.06 632.64 221.23 639.23 C 215.89 645.13 204.91 637.42 197.78 636.22 C 190.89 633.01 176.89 635.53 176.00 626.00
C 176.63 622.17 174.72 617.01 177.00 614.00
C 181.00 600.30 165.89 597.31 158.75 589.25 C 148.54 587.93 135.44 604.03 128.25 591.75 C 122.77 582.72 116.66 574.06 110.75 565.25 C 104.58 555.93 118.54 547.08 124.00 540.00
C 121.69 531.67 121.33 522.35 117.25 514.75 C 110.44 510.30 101.62 508.92 96.00 503.00
C 93.69 502.40 93.97 499.87 94.00 498.00
C 91.04 508.54 107.44 509.85 113.77 515.23 C 119.40 521.66 122.83 535.41 118.25 543.25 C 112.87 550.25 101.35 558.89 110.25 567.75 C 115.97 574.95 120.03 583.10 125.70 590.30 C 129.37 602.85 141.11 597.09 149.31 593.31 C 158.82 586.83 165.93 599.26 173.74 603.26 C 179.09 612.13 168.41 630.17 180.99 634.01 C 191.53 636.06 201.59 639.44 211.92 642.08 C 223.07 649.34 225.37 632.90 230.69 626.69 C 235.43 612.68 246.60 627.31 248.70 635.30 C 251.83 649.47 265.24 640.87 274.32 639.32 C 282.06 634.34 298.07 637.62 300.00 627.00 C 300.83 616.31 294.60 602.50 307.75 597.75 C 314.49 588.81 323.83 590.05 332.32 595.68 C 343.00 603.36 348.51 590.19 353.25 583.25 C 357.71 574.98 365.89 568.08 367.99 559.01 C 365.67 550.30 354.63 545.18 353.02 536.02 C 356.07 526.74 354.34 514.12 366.77 511.77 C 379.89 509.14 381.91 498.30 380.00 486.00 C 376.66 476.69 384.95 458.23 370.22 457.78 C 360.47 455.39 348.00 456.19 344.92 444.08 C 337.51 436.02 340.34 427.64 347.07 420.07 C 354.70 410.92 347.77 402.93 339.30 397.70 C 333.24 391.26 325.42 385.52 318.75 379.25 C 310.77 371.26 303.57 385.10 296.08 388.08 C 287.32 394.82 277.22 384.08 268.26 382.74 C 262.44 374.91 266.92 359.86 257.00 356.00 C 244.34 356.02 231.68 355.97 219.02 356.02 C 207.20 357.90 211.34 373.96 205.90 381.90 C 198.04 384.01 187.36 393.87 179.23 388.77 C 170.77 385.78 164.53 372.65 155.25 378.25 C 148.67 384.97 141.64 389.56 135.25 396.25 C 128.40 401.86 117.77 409.41 126.23 418.77 C 131.39 427.02 138.22 435.12 129.31 443.31 C 126.99 455.10 114.83 456.13 105.02 457.02 C 90.00 457.23 96.19 474.92 95.00 485.00 Z"/>
</g>
<g fill="#0486D0" fill-opacity="0.99" stroke="None">
<path d="
M 96.00 485.00 
C 96.84 491.10 94.70 497.60 96.00 503.00
C 101.62 508.92 110.44 510.30 117.25 514.75 C 121.33 522.35 121.69 531.67 124.00 540.00
C 118.54 547.08 104.58 555.93 110.75 565.25 C 116.66 574.06 122.77 582.72 128.25 591.75 C 135.44 604.03 148.54 587.93 158.75 589.25 C 165.89 597.31 181.00 600.30 177.00 614.00
C 176.37 617.83 178.28 622.99 176.00 626.00
C 176.89 635.53 190.89 633.01 197.78 636.22 C 204.91 637.42 215.89 645.13 221.23 639.23 C 225.06 632.64 229.49 626.17 232.00 619.00
C 246.43 615.23 247.04 632.96 254.26 640.74 C 265.21 642.31 277.16 635.51 288.33 633.33 C 306.11 633.71 295.20 613.32 298.00 602.00
C 304.40 598.41 311.24 594.14 316.00 588.00
C 325.90 588.36 339.56 603.00 346.25 590.25 C 352.60 581.77 357.78 572.62 364.23 564.23 C 368.06 554.83 355.75 546.09 350.00 539.00
C 354.94 527.42 352.57 511.92 368.30 509.30 C 384.64 505.46 377.12 487.20 377.00 475.00 C 382.55 456.45 361.03 457.79 349.00 456.00
C 346.92 447.62 339.15 440.37 337.70 432.70 C 341.24 424.79 347.61 417.64 348.92 409.08 C 343.64 403.13 336.95 397.47 330.75 392.25 C 323.95 388.91 319.32 377.14 311.25 379.25 C 304.33 384.16 297.60 390.22 290.23 393.77 C 283.21 387.87 271.63 389.14 265.93 383.07 C 261.39 375.83 265.38 360.21 255.00 359.00 C 243.33 359.00 231.67 359.00 220.00 359.00 C 209.05 359.34 212.12 375.78 208.30 383.30 C 201.58 388.28 191.33 389.02 183.70 393.64 C 176.27 391.08 170.18 383.77 162.74 380.26 C 154.43 376.38 149.39 389.28 142.25 392.25 C 136.53 398.43 130.21 403.51 124.00 409.00
C 126.77 417.49 132.56 424.66 136.21 432.77 C 134.98 440.36 127.77 447.92 125.00 456.00
C 116.42 456.26 108.62 459.02 100.25 460.25 C 93.79 466.64 98.84 477.19 96.00 485.00
M 292.00 541.00 
C 290.99 540.45 290.56 539.02 290.00 538.00
C 286.42 533.40 284.70 527.21 279.75 523.25 C 271.54 522.69 263.24 523.15 255.00 523.00
C 256.05 518.02 259.94 514.00 261.00 509.00
C 272.47 506.38 290.47 515.05 297.00 503.00
C 310.42 509.96 322.97 488.48 307.92 482.08 C 287.58 474.97 296.03 506.59 277.00 500.00 C 260.67 500.00 244.33 500.00 228.00 500.00
C 224.07 501.60 216.86 501.70 213.00 500.00
C 217.11 491.73 221.26 483.59 225.31 475.31 C 228.52 469.43 234.35 451.15 240.25 464.75 C 245.21 472.33 247.69 482.25 255.08 487.92 C 263.59 488.09 284.78 491.12 277.22 476.78 C 267.54 461.55 265.98 438.79 250.00 429.00
C 240.33 429.00 230.67 429.00 221.00 429.00
C 205.81 443.86 200.06 467.69 189.07 486.07 C 178.28 505.28 168.87 525.44 159.00 545.00
C 150.85 534.45 147.69 520.47 147.00 507.00
C 145.41 503.40 145.29 496.53 147.00 493.00
C 148.36 420.62 247.87 381.47 298.25 433.75 C 354.07 479.94 324.96 578.36 254.78 589.78 C 233.70 592.86 211.68 590.32 193.77 579.23 C 187.31 574.98 173.89 569.49 182.77 560.77 C 186.92 552.68 190.88 544.46 195.75 536.75 C 201.00 526.66 218.00 534.46 228.00 532.00 C 240.33 532.00 252.67 532.00 265.00 532.00 C 276.88 528.33 282.69 539.87 284.99 549.01 C 281.63 565.96 301.39 550.75 292.00 541.00
M 305.00 496.00 
C 301.34 499.35 295.93 490.31 302.00 489.00
C 305.66 485.65 311.07 494.69 305.00 496.00 Z"/>
</g>
<g fill="#F0F9FB" fill-opacity="0.16" stroke="None">
<path d="
M 147.00 493.00 
C 147.00 497.67 147.00 502.33 147.00 507.00
C 147.69 520.47 150.85 534.45 159.00 545.00
C 168.87 525.44 178.28 505.28 189.07 486.07 C 200.06 467.69 205.81 443.86 221.00 429.00
C 229.59 427.35 241.48 427.32 250.00 429.00
C 265.98 438.79 267.54 461.55 277.22 476.78 C 284.78 491.12 263.59 488.09 255.08 487.92 C 247.69 482.25 245.21 472.33 240.25 464.75 C 234.35 451.15 228.52 469.43 225.31 475.31 C 221.26 483.59 217.11 491.73 213.00 500.00
C 218.00 500.00 223.00 500.00 228.00 500.00
C 244.33 500.00 260.67 500.00 277.00 500.00 C 296.03 506.59 287.58 474.97 307.92 482.08 C 322.97 488.48 310.42 509.96 297.00 503.00
C 290.47 515.05 272.47 506.38 261.00 509.00
C 259.94 514.00 256.05 518.02 255.00 523.00
C 263.24 523.15 271.54 522.69 279.75 523.25 C 284.70 527.21 286.42 533.40 290.00 538.00
C 291.60 537.47 290.72 535.25 291.00 534.00
C 288.67 522.59 305.16 515.80 311.75 525.25 C 319.36 534.86 305.97 546.94 296.00 541.00
C 294.63 539.90 292.69 538.24 292.00 541.00
C 301.39 550.75 281.63 565.96 284.99 549.01 C 282.69 539.87 276.88 528.33 265.00 532.00 C 252.67 532.00 240.33 532.00 228.00 532.00 C 218.00 534.46 201.00 526.66 195.75 536.75 C 190.88 544.46 186.92 552.68 182.77 560.77 C 173.89 569.49 187.31 574.98 193.77 579.23 C 211.68 590.32 233.70 592.86 254.78 589.78 C 324.96 578.36 354.07 479.94 298.25 433.75 C 247.87 381.47 148.36 420.62 147.00 493.00
M 316.00 539.00 
C 324.16 521.52 290.87 508.83 290.00 530.00
C 284.15 522.44 277.40 517.48 267.00 520.00 C 252.01 522.91 263.83 506.15 274.00 512.00 C 284.21 512.88 293.74 512.74 300.03 505.03 C 325.24 510.03 317.89 468.83 296.31 481.31 C 287.34 484.04 291.50 499.42 280.00 498.00 C 258.68 497.39 236.53 498.89 216.00 498.00
C 221.11 489.00 224.60 478.98 230.25 470.25 C 235.29 453.43 243.15 475.02 247.30 481.70 C 252.08 493.50 270.28 489.50 279.74 486.74 C 282.89 475.81 272.60 466.34 270.08 455.92 C 264.46 446.87 262.92 435.89 254.75 428.25 C 242.62 426.32 228.96 425.75 216.93 427.93 C 200.81 455.09 188.47 484.40 173.23 512.23 C 167.40 520.74 165.43 532.92 157.00 539.00
C 138.75 502.98 149.05 455.57 181.75 430.75 C 212.92 404.91 263.89 405.10 294.23 432.77 C 325.07 457.81 336.29 506.26 316.00 539.00
M 290.00 560.00 
C 294.60 555.76 297.09 550.46 296.00 544.00
C 303.10 544.63 310.72 544.37 315.00 539.00
C 298.52 586.07 232.16 602.83 191.92 576.08 C 177.31 570.98 185.94 556.79 191.31 547.31 C 194.86 531.51 209.96 531.73 224.00 533.00 C 239.33 533.00 254.67 533.00 270.00 533.00 C 286.24 533.65 277.34 557.75 290.00 560.00 Z"/>
</g>
<g fill="#000000" fill-opacity="0.00" stroke="None">
<path d="
M 316.00 539.00 
C 336.29 506.26 325.07 457.81 294.23 432.77 C 263.89 405.10 212.92 404.91 181.75 430.75 C 149.05 455.57 138.75 502.98 157.00 539.00
C 165.43 532.92 167.40 520.74 173.23 512.23 C 188.47 484.40 200.81 455.09 216.93 427.93 C 228.96 425.75 242.62 426.32 254.75 428.25 C 262.92 435.89 264.46 446.87 270.08 455.92 C 272.60 466.34 282.89 475.81 279.74 486.74 C 270.28 489.50 252.08 493.50 247.30 481.70 C 243.15 475.02 235.29 453.43 230.25 470.25 C 224.60 478.98 221.11 489.00 216.00 498.00
C 236.53 498.89 258.68 497.39 280.00 498.00 C 291.50 499.42 287.34 484.04 296.31 481.31 C 317.89 468.83 325.24 510.03 300.03 505.03 C 293.74 512.74 284.21 512.88 274.00 512.00 C 263.83 506.15 252.01 522.91 267.00 520.00 C 277.40 517.48 284.15 522.44 290.00 530.00
C 290.87 508.83 324.16 521.52 316.00 539.00 Z"/>
</g>
<g fill="#CCE9F3" fill-opacity="0.64" stroke="None">
<path d="
M 221.00 429.00 
C 230.67 429.00 240.33 429.00 250.00 429.00
C 241.48 427.32 229.59 427.35 221.00 429.00 Z"/>
</g>
<g fill="#F2FAFC" fill-opacity="0.15" stroke="None">
<path d="
M 551.00 469.00 
C 551.10 467.07 550.20 460.26 553.00 462.00
C 557.91 463.17 566.49 459.56 569.00 464.00
C 569.00 471.33 569.00 478.67 569.00 486.00
C 576.00 486.00 583.00 486.00 590.00 486.00
C 590.00 490.67 590.00 495.33 590.00 500.00
C 583.00 500.00 576.00 500.00 569.00 500.00
C 569.42 516.27 562.64 546.65 589.00 541.00
C 589.00 545.33 589.00 549.67 589.00 554.00
C 567.82 559.24 546.21 545.38 552.00 522.00
C 550.90 522.03 551.19 523.34 551.00 524.00
C 546.25 540.99 559.80 558.97 577.78 555.22 C 589.09 561.00 594.90 549.39 589.74 540.26 C 582.60 538.53 569.53 539.50 571.00 528.00 C 572.36 519.45 565.85 506.84 573.00 501.00 C 582.27 501.31 596.21 503.51 591.07 490.07 C 593.96 478.87 576.14 486.63 570.00 483.00
C 569.47 475.44 571.75 468.61 571.00 461.00
C 563.54 459.88 543.77 456.21 551.00 469.00 Z"/>
</g>
<g fill="#F0F9FC" fill-opacity="0.21" stroke="None">
<path d="
M 692.00 553.00 
C 677.64 546.22 677.54 529.07 678.00 515.00 C 678.00 497.33 678.00 479.67 678.00 462.00
C 683.67 462.00 689.33 462.00 695.00 462.00
C 695.00 470.00 695.00 478.00 695.00 486.00
C 702.00 486.00 709.00 486.00 716.00 486.00
C 716.00 488.33 716.00 490.67 716.00 493.00
C 722.86 478.79 701.85 487.08 696.78 482.22 C 693.20 475.12 701.90 457.07 688.00 460.00 C 674.54 455.77 676.36 469.54 677.00 478.00 C 679.93 501.52 664.41 541.37 692.00 553.00 Z"/>
</g>
<g fill="#F4FBFD" fill-opacity="0.14" stroke="None">
<path d="
M 904.00 486.00 
C 902.15 476.69 910.13 456.38 894.00 460.00 C 879.05 456.27 883.75 472.86 883.00 482.00 C 883.46 502.99 882.96 523.16 883.00 545.00 C 879.73 559.55 895.57 555.36 904.00 555.00
C 904.00 544.00 904.00 533.00 904.00 522.00 C 903.32 513.14 903.31 501.70 914.00 500.00 C 938.09 500.00 927.33 532.87 930.00 549.00 C 928.46 560.99 944.99 554.62 952.00 555.00
C 947.29 537.23 953.02 516.29 947.92 498.08 C 941.35 480.21 918.88 480.95 904.00 486.00
M 902.00 462.00 
C 902.00 472.00 902.00 482.00 902.00 492.00
C 914.04 480.86 934.62 481.35 944.75 495.25 C 952.41 513.14 947.69 534.42 949.00 554.00
C 943.33 554.00 937.67 554.00 932.00 554.00
C 928.78 535.73 941.66 503.00 916.99 498.01 C 891.51 501.88 905.63 535.85 902.00 554.00
C 896.33 554.00 890.67 554.00 885.00 554.00
C 885.00 523.33 885.00 492.67 885.00 462.00
C 890.67 462.00 896.33 462.00 902.00 462.00 Z"/>
</g>
<g fill="#C8E8F2" fill-opacity="0.40" stroke="None">
<path d="
M 551.00 469.00 
C 551.00 469.00 551.00 469.50 551.00 470.00
C 551.00 476.33 551.00 482.67 551.00 489.00
C 551.00 488.96 552.00 489.00 552.00 489.00
C 552.66 480.17 550.67 470.01 553.00 462.00
C 550.20 460.26 551.10 467.07 551.00 469.00 Z"/>
</g>
<g fill="#0785D0" fill-opacity="0.98" stroke="None">
<path d="
M 552.00 489.00 
C 552.00 494.00 552.00 499.00 552.00 504.00
C 552.00 510.00 552.00 516.00 552.00 522.00
C 546.21 545.38 567.82 559.24 589.00 554.00
C 589.00 549.67 589.00 545.33 589.00 541.00
C 562.64 546.65 569.42 516.27 569.00 500.00
C 576.00 500.00 583.00 500.00 590.00 500.00
C 590.00 495.33 590.00 490.67 590.00 486.00
C 583.00 486.00 576.00 486.00 569.00 486.00
C 567.36 479.74 567.31 470.19 569.00 464.00
C 566.49 459.56 557.91 463.17 553.00 462.00
C 550.67 470.01 552.66 480.17 552.00 489.00 Z"/>
</g>
<g fill="#0785D0" fill-opacity="0.98" stroke="None">
<path d="
M 692.00 553.00 
C 692.00 553.00 692.51 552.92 693.00 553.00
C 700.29 554.76 708.33 553.74 716.00 554.00
C 716.00 549.67 716.00 545.33 716.00 541.00
C 689.61 546.88 694.92 516.85 695.00 500.00
C 701.42 498.06 715.84 504.67 716.00 495.00
C 715.95 494.51 715.97 493.50 716.00 493.00
C 716.00 490.67 716.00 488.33 716.00 486.00
C 709.00 486.00 702.00 486.00 695.00 486.00
C 695.00 478.00 695.00 470.00 695.00 462.00
C 689.33 462.00 683.67 462.00 678.00 462.00
C 678.00 479.67 678.00 497.33 678.00 515.00 C 677.54 529.07 677.64 546.22 692.00 553.00 Z"/>
</g>
<g fill="#0686D0" fill-opacity="0.98" stroke="None">
<path d="
M 902.00 462.00 
C 896.33 462.00 890.67 462.00 885.00 462.00
C 885.00 492.67 885.00 523.33 885.00 554.00
C 890.67 554.00 896.33 554.00 902.00 554.00
C 905.63 535.85 891.51 501.88 916.99 498.01 C 941.66 503.00 928.78 535.73 932.00 554.00
C 937.67 554.00 943.33 554.00 949.00 554.00
C 947.69 534.42 952.41 513.14 944.75 495.25 C 934.62 481.35 914.04 480.86 902.00 492.00
C 902.00 482.00 902.00 472.00 902.00 462.00 Z"/>
</g>
<g fill="#5EACD6" fill-opacity="0.93" stroke="None">
<path d="
M 569.00 486.00 
C 569.00 478.67 569.00 471.33 569.00 464.00
C 567.31 470.19 567.36 479.74 569.00 486.00 Z"/>
</g>
<g fill="#FFFFFF" fill-opacity="0.01" stroke="None">
<path d="
M 551.00 517.00 
C 551.00 512.67 551.00 508.33 551.00 504.00
C 551.00 499.00 551.00 494.00 551.00 489.00
C 551.00 482.67 551.00 476.33 551.00 470.00
C 549.33 484.52 549.34 502.40 551.00 517.00 Z"/>
</g>
<g fill="#F0F9FC" fill-opacity="0.16" stroke="None">
<path d="
M 442.00 552.00 
C 446.42 558.04 467.72 559.27 463.00 546.00 C 464.24 534.94 464.67 522.81 463.33 511.67 C 465.74 478.41 411.36 472.69 399.98 498.98 C 393.78 511.01 417.40 511.34 420.08 503.08 C 426.29 496.15 443.29 499.50 442.00 511.00
C 423.94 508.85 394.46 511.07 396.00 536.00 C 396.69 559.20 426.37 559.66 442.00 552.00
M 461.00 554.00 
C 455.11 552.55 441.74 558.24 444.00 548.00
C 430.66 558.91 399.75 559.04 398.00 537.00 C 395.27 511.82 426.00 511.05 444.00 512.00
C 446.00 501.22 434.52 495.74 425.33 498.33 C 417.49 503.37 410.94 508.61 400.00 506.00
C 402.27 482.86 433.48 481.00 450.23 488.77 C 469.51 503.45 457.73 532.64 461.00 554.00 Z"/>
</g>
<g fill="#E8F5FA" fill-opacity="0.18" stroke="None">
<path d="
M 643.00 483.00 
C 612.02 474.94 587.67 505.62 599.07 533.93 C 605.76 559.86 643.22 563.46 660.75 546.75 C 675.97 526.81 671.20 487.83 643.00 483.00
M 638.00 484.00 
C 665.59 485.38 675.02 521.09 662.23 542.23 C 647.60 561.72 609.89 559.92 601.08 535.92 C 591.02 510.97 608.31 478.27 638.00 484.00 Z"/>
</g>
<g fill="#F0F9FC" fill-opacity="0.16" stroke="None">
<path d="
M 746.00 528.00 
C 759.61 528.52 773.79 526.86 787.00 529.00 C 804.14 532.63 797.34 510.41 794.31 501.70 C 780.28 467.79 716.93 481.12 725.00 521.00 C 719.69 560.02 781.39 569.52 796.07 538.07 C 798.92 526.02 778.11 531.45 772.25 536.25 C 764.58 544.16 746.24 540.05 746.00 528.00
M 796.00 526.00 
C 778.67 526.00 761.33 526.00 744.00 526.00
C 741.78 542.89 769.17 547.57 776.00 535.00
C 782.00 535.00 788.00 535.00 794.00 535.00
C 788.03 559.10 750.32 561.36 734.75 545.25 C 720.15 528.14 723.84 489.93 749.67 485.67 C 775.12 476.30 801.82 498.92 796.00 526.00 Z"/>
</g>
<g fill="#EDF7FB" fill-opacity="0.16" stroke="None">
<path d="
M 854.00 511.00 
C 864.09 512.31 879.92 512.04 871.75 498.25 C 867.09 491.45 860.25 485.21 852.02 483.98 C 820.87 472.94 792.68 507.42 806.68 535.32 C 815.33 560.77 857.28 565.00 870.74 541.74 C 879.60 528.51 864.08 527.33 854.00 529.00
C 850.21 549.44 820.29 537.17 825.00 519.00 C 820.20 500.00 852.08 490.42 854.00 511.00
M 807.00 524.00 
C 805.43 521.06 805.29 514.87 807.00 512.00
C 807.19 476.84 870.18 473.73 872.00 509.00
C 866.33 509.00 860.67 509.00 855.00 509.00
C 851.91 487.57 817.05 500.03 824.00 520.00 C 818.75 539.80 849.81 551.05 856.00 531.00
C 861.33 531.00 866.67 531.00 872.00 531.00
C 869.01 567.50 803.34 560.93 807.00 524.00 Z"/>
</g>
<g fill="#FEFFFF" fill-opacity="0.01" stroke="None">
<path d="
M 472.00 486.00 
C 472.00 485.99 473.00 486.00 473.00 486.00
C 478.39 485.02 493.68 481.31 491.00 492.00
C 496.75 481.13 476.94 482.43 472.00 486.00 Z"/>
</g>
<g fill="#F2FAFC" fill-opacity="0.21" stroke="None">
<path d="
M 492.00 529.00 
C 491.94 528.84 491.00 529.00 491.00 529.00
C 489.35 543.82 514.59 545.47 516.97 531.97 C 519.35 517.18 517.33 501.24 518.00 486.00
C 523.24 487.19 532.17 483.53 535.00 488.00
C 536.75 488.83 535.66 491.44 536.00 493.00
C 542.53 481.48 519.98 481.40 516.22 486.78 C 517.43 495.67 516.71 504.55 516.20 512.75 C 516.36 519.73 518.62 531.28 511.30 536.30 C 505.62 544.16 493.16 537.18 492.00 529.00 Z"/>
</g>
<g fill="#0885D0" fill-opacity="0.98" stroke="None">
<path d="
M 638.00 484.00 
C 608.31 478.27 591.02 510.97 601.08 535.92 C 609.89 559.92 647.60 561.72 662.23 542.23 C 675.02 521.09 665.59 485.38 638.00 484.00
M 639.00 498.00 
C 659.05 506.34 653.60 547.62 628.93 541.07 C 606.98 535.07 612.93 490.81 639.00 498.00 Z"/>
</g>
<g fill="#0886D0" fill-opacity="0.98" stroke="None">
<path d="
M 796.00 526.00 
C 801.82 498.92 775.12 476.30 749.67 485.67 C 723.84 489.93 720.15 528.14 734.75 545.25 C 750.32 561.36 788.03 559.10 794.00 535.00
C 788.00 535.00 782.00 535.00 776.00 535.00
C 769.17 547.57 741.78 542.89 744.00 526.00
C 761.33 526.00 778.67 526.00 796.00 526.00
M 778.00 513.00 
C 766.67 513.00 755.33 513.00 744.00 513.00
C 742.96 492.28 779.80 492.09 778.00 513.00 Z"/>
</g>
<g fill="#0985D0" fill-opacity="0.98" stroke="None">
<path d="
M 807.00 512.00 
C 807.00 516.00 807.00 520.00 807.00 524.00
C 803.34 560.93 869.01 567.50 872.00 531.00
C 866.67 531.00 861.33 531.00 856.00 531.00
C 849.81 551.05 818.75 539.80 824.00 520.00 C 817.05 500.03 851.91 487.57 855.00 509.00
C 860.67 509.00 866.33 509.00 872.00 509.00
C 870.18 473.73 807.19 476.84 807.00 512.00 Z"/>
</g>
<g fill="#E1F2F9" fill-opacity="0.41" stroke="None">
<path d="
M 94.00 498.00 
C 93.97 499.87 93.69 502.40 96.00 503.00
C 94.70 497.60 96.84 491.10 96.00 485.00
C 96.00 485.00 95.26 484.75 95.00 485.00
C 93.76 488.51 92.86 494.29 94.00 498.00 Z"/>
</g>
<g fill="#0986D0" fill-opacity="0.98" stroke="None">
<path d="
M 461.00 554.00 
C 457.73 532.64 469.51 503.45 450.23 488.77 C 433.48 481.00 402.27 482.86 400.00 506.00
C 410.94 508.61 417.49 503.37 425.33 498.33 C 434.52 495.74 446.00 501.22 444.00 512.00
C 426.00 511.05 395.27 511.82 398.00 537.00 C 399.75 559.04 430.66 558.91 444.00 548.00
C 441.74 558.24 455.11 552.55 461.00 554.00
M 440.00 525.00 
C 441.33 525.00 442.67 525.00 444.00 525.00
C 447.43 537.60 434.17 543.06 424.00 542.00 C 410.52 543.19 413.62 522.41 426.00 525.00
C 429.60 523.41 436.47 523.29 440.00 525.00 Z"/>
</g>
<g fill="#B6DEEE" fill-opacity="0.42" stroke="None">
<path d="
M 473.00 486.00 
C 478.67 486.00 484.33 486.00 490.00 486.00
C 490.00 498.33 490.00 510.67 490.00 523.00
C 492.30 516.24 490.36 507.51 491.00 500.00
C 491.00 497.33 491.00 494.67 491.00 492.00
C 493.68 481.31 478.39 485.02 473.00 486.00 Z"/>
</g>
<g fill="#F2FAFC" fill-opacity="0.14" stroke="None">
<path d="
M 536.00 528.00 
C 536.00 531.67 536.00 535.33 536.00 539.00
C 535.36 543.17 537.29 548.66 535.00 552.00
C 532.15 554.85 515.01 557.40 518.00 548.00
C 506.46 557.05 483.70 559.62 476.70 543.30 C 469.75 525.80 474.33 505.04 473.00 486.00
C 473.00 486.00 472.00 485.99 472.00 486.00
C 470.52 504.38 470.98 522.47 473.23 540.77 C 479.32 557.78 501.21 560.83 515.00 552.00
C 518.71 558.96 530.60 555.17 536.22 554.22 C 537.38 546.11 537.79 535.75 536.00 528.00 Z"/>
</g>
<g fill="#0685D0" fill-opacity="0.99" stroke="None">
<path d="
M 535.00 552.00 
C 535.00 547.67 535.00 543.33 535.00 539.00
C 535.00 522.00 535.00 505.00 535.00 488.00
C 532.17 483.53 523.24 487.19 518.00 486.00
C 517.33 501.24 519.35 517.18 516.97 531.97 C 514.59 545.47 489.35 543.82 491.00 529.00
C 490.72 527.01 489.52 525.22 490.00 523.00
C 490.00 510.67 490.00 498.33 490.00 486.00
C 484.33 486.00 478.67 486.00 473.00 486.00
C 474.33 505.04 469.75 525.80 476.70 543.30 C 483.70 559.62 506.46 557.05 518.00 548.00
C 515.01 557.40 532.15 554.85 535.00 552.00 Z"/>
</g>
<g fill="#D8EEF7" fill-opacity="0.52" stroke="None">
<path d="
M 302.00 489.00 
C 305.05 490.72 304.00 494.04 305.00 496.00
C 311.07 494.69 305.66 485.65 302.00 489.00 Z"/>
</g>
<g fill="#C8E7F2" fill-opacity="0.34" stroke="None">
<path d="
M 535.00 539.00 
C 535.00 538.96 536.00 539.00 536.00 539.00
C 536.00 535.33 536.00 531.67 536.00 528.00
C 536.00 516.33 536.00 504.67 536.00 493.00
C 535.66 491.44 536.75 488.83 535.00 488.00
C 535.00 505.00 535.00 522.00 535.00 539.00 Z"/>
</g>
<g fill="#E9F5FA" fill-opacity="0.22" stroke="None">
<path d="
M 305.00 496.00 
C 304.00 494.04 305.05 490.72 302.00 489.00
C 295.93 490.31 301.34 499.35 305.00 496.00 Z"/>
</g>
<g fill="#C4E4F0" fill-opacity="0.56" stroke="None">
<path d="
M 551.00 504.00 
C 551.00 503.96 552.00 504.00 552.00 504.00
C 552.00 499.00 552.00 494.00 552.00 489.00
C 552.00 489.00 551.00 488.96 551.00 489.00
C 551.00 494.00 551.00 499.00 551.00 504.00 Z"/>
</g>
<g fill="#A8D6EB" fill-opacity="0.44" stroke="None">
<path d="
M 147.00 507.00 
C 147.00 502.33 147.00 497.67 147.00 493.00
C 145.29 496.53 145.41 503.40 147.00 507.00 Z"/>
</g>
<g fill="#EBF6FA" fill-opacity="0.16" stroke="None">
<path d="
M 693.00 553.00 
C 699.35 556.19 720.74 561.28 717.00 547.00 C 720.31 532.84 699.66 543.75 697.00 532.00 C 696.98 521.53 695.57 511.36 697.00 501.00
C 702.87 499.63 720.04 505.13 716.00 495.00
C 715.84 504.67 701.42 498.06 695.00 500.00
C 694.92 516.85 689.61 546.88 716.00 541.00
C 716.00 545.33 716.00 549.67 716.00 554.00
C 708.33 553.74 700.29 554.76 693.00 553.00 Z"/>
</g>
<g fill="#EFF8FB" fill-opacity="0.23" stroke="None">
<path d="
M 778.00 513.00 
C 779.80 492.09 742.96 492.28 744.00 513.00
C 755.33 513.00 766.67 513.00 778.00 513.00
M 772.00 501.00 
C 772.35 504.78 776.12 506.20 777.00 510.00
C 767.17 512.29 756.25 510.37 746.00 511.00
C 747.47 498.38 762.27 497.17 772.00 501.00 Z"/>
</g>
<g fill="#E8F5FA" fill-opacity="0.19" stroke="None">
<path d="
M 639.00 498.00 
C 612.93 490.81 606.98 535.07 628.93 541.07 C 653.60 547.62 659.05 506.34 639.00 498.00
M 636.00 499.00 
C 655.90 503.15 653.65 543.95 630.33 539.67 C 610.04 535.40 613.03 495.66 636.00 499.00 Z"/>
</g>
<g fill="#000000" fill-opacity="0.00" stroke="None">
<path d="
M 636.00 499.00 
C 613.03 495.66 610.04 535.40 630.33 539.67 C 653.65 543.95 655.90 503.15 636.00 499.00 Z"/>
</g>
<g fill="#000000" fill-opacity="0.00" stroke="None">
<path d="
M 772.00 501.00 
C 762.27 497.17 747.47 498.38 746.00 511.00
C 756.25 510.37 767.17 512.29 777.00 510.00
C 776.12 506.20 772.35 504.78 772.00 501.00 Z"/>
</g>
<g fill="#7EBFDF" fill-opacity="0.77" stroke="None">
<path d="
M 228.00 500.00 
C 223.00 500.00 218.00 500.00 213.00 500.00
C 216.86 501.70 224.07 501.60 228.00 500.00 Z"/>
</g>
<g fill="#F3F9FC" fill-opacity="0.09" stroke="None">
<path d="
M 490.00 523.00 
C 489.52 525.22 490.72 527.01 491.00 529.00
C 491.00 529.00 491.94 528.84 492.00 529.00
C 491.35 519.49 493.31 508.76 491.00 500.00
C 490.36 507.51 492.30 516.24 490.00 523.00 Z"/>
</g>
<g fill="#E5F5F9" fill-opacity="0.29" stroke="None">
<path d="
M 551.00 517.00 
C 549.88 518.91 549.16 522.47 551.00 524.00
C 551.19 523.34 550.90 522.03 552.00 522.00
C 552.00 516.00 552.00 510.00 552.00 504.00
C 552.00 504.00 551.00 503.96 551.00 504.00
C 551.00 508.33 551.00 512.67 551.00 517.00 Z"/>
</g>
<g fill="#C8E7F2" fill-opacity="0.64" stroke="None">
<path d="
M 807.00 524.00 
C 807.00 520.00 807.00 516.00 807.00 512.00
C 805.29 514.87 805.43 521.06 807.00 524.00 Z"/>
</g>
<g fill="#1185CF" fill-opacity="0.96" stroke="None">
<path d="
M 291.00 534.00 
C 292.90 535.99 294.38 538.66 296.00 541.00
C 305.97 546.94 319.36 534.86 311.75 525.25 C 305.16 515.80 288.67 522.59 291.00 534.00
M 300.00 531.00 
C 299.73 529.72 300.77 528.28 302.00 528.00
C 312.38 529.87 298.12 539.79 300.00 531.00 Z"/>
</g>
<g fill="#55A9D6" fill-opacity="0.71" stroke="None">
<path d="
M 426.00 525.00 
C 430.67 525.00 435.33 525.00 440.00 525.00
C 436.47 523.29 429.60 523.41 426.00 525.00 Z"/>
</g>
<g fill="#F2F9FC" fill-opacity="0.18" stroke="None">
<path d="
M 440.00 525.00 
C 435.33 525.00 430.67 525.00 426.00 525.00
C 413.62 522.41 410.52 543.19 424.00 542.00 C 434.17 543.06 447.43 537.60 444.00 525.00
C 442.67 525.00 441.33 525.00 440.00 525.00
M 442.00 526.00 
C 445.61 537.70 426.57 544.15 418.25 537.75 C 411.45 524.13 434.12 526.65 442.00 526.00 Z"/>
</g>
<g fill="#000000" fill-opacity="0.00" stroke="None">
<path d="
M 442.00 526.00 
C 434.12 526.65 411.45 524.13 418.25 537.75 C 426.57 544.15 445.61 537.70 442.00 526.00 Z"/>
</g>
<g fill="#F7FCFD" fill-opacity="0.07" stroke="None">
<path d="
M 300.00 531.00 
C 300.01 531.50 300.00 532.00 300.00 532.00
C 301.65 533.91 304.88 530.70 303.00 529.00
C 302.67 528.82 302.24 528.07 302.00 528.00
C 300.77 528.28 299.73 529.72 300.00 531.00 Z"/>
</g>
<g fill="#D2EBF4" fill-opacity="0.63" stroke="None">
<path d="
M 303.00 529.00 
C 308.23 530.72 301.64 537.16 300.00 532.00
C 300.00 532.00 300.01 531.50 300.00 531.00
C 298.12 539.79 312.38 529.87 302.00 528.00
C 302.24 528.07 302.67 528.82 303.00 529.00 Z"/>
</g>
<g fill="#F8FFFF" fill-opacity="0.27" stroke="None">
<path d="
M 300.00 532.00 
C 301.64 537.16 308.23 530.72 303.00 529.00
C 304.88 530.70 301.65 533.91 300.00 532.00 Z"/>
</g>
<g fill="#000000" fill-opacity="0.00" stroke="None">
<path d="
M 290.00 560.00 
C 277.34 557.75 286.24 533.65 270.00 533.00 C 254.67 533.00 239.33 533.00 224.00 533.00 C 209.96 531.73 194.86 531.51 191.31 547.31 C 185.94 556.79 177.31 570.98 191.92 576.08 C 232.16 602.83 298.52 586.07 315.00 539.00
C 310.72 544.37 303.10 544.63 296.00 544.00
C 297.09 550.46 294.60 555.76 290.00 560.00 Z"/>
</g>
<g fill="#E2F3F8" fill-opacity="0.59" stroke="None">
<path d="
M 290.00 538.00 
C 290.56 539.02 290.99 540.45 292.00 541.00
C 292.69 538.24 294.63 539.90 296.00 541.00
C 294.38 538.66 292.90 535.99 291.00 534.00
C 290.72 535.25 291.60 537.47 290.00 538.00 Z"/>
</g>
<g fill="#CDEAF4" fill-opacity="0.49" stroke="None">
<path d="
M 535.00 552.00 
C 537.29 548.66 535.36 543.17 536.00 539.00
C 536.00 539.00 535.00 538.96 535.00 539.00
C 535.00 543.33 535.00 547.67 535.00 552.00 Z"/>
</g>
<g fill="#B1DBED" fill-opacity="0.78" stroke="None">
<path d="
M 176.00 626.00 
C 178.28 622.99 176.37 617.83 177.00 614.00
C 174.72 617.01 176.63 622.17 176.00 626.00 Z"/>
</g>
</svg>